<svg xmlns="http://www.w3.org/2000/svg" id="Camada_2" viewBox="0 0 38.08 38.11"><defs><style>      .cls-1 {        fill: #45af91;      }    </style></defs><g id="Camada_1-2" data-name="Camada_1"><path class="cls-1" d="M15.21.37l3,11.09.5-.12V0c-1.14,0-2.28.14-3.51.37M20.64,26.81c-.13.02-.28.03-.41.04v11.22c1.18-.04,2.34-.22,3.45-.53l-2.91-10.74-.13.02ZM16.32,26.03l-5.83,10.07c1.03.52,2.12.95,3.25,1.27l3.02-11.17-.43-.17ZM18.36,26.68l-.15-.04-3,11.09c1.06.22,2.44.37,3.51.37v-11.35c-.12-.03-.22-.05-.35-.08M14.43,25.18c-.14.16-7.96,7.92-8.07,8.09.88.79,1.82,1.49,2.8,2.09l5.76-9.95-.48-.23ZM27.42,19.96c-.02.14-.05.3-.07.44l10.14,2.75.16.04c.24-1.1.39-2.23.43-3.37h-10.65l-.02.14ZM24.41,25.27c-.1.08-.22.16-.32.24l5.47,9.44c.94-.62,1.82-1.33,2.63-2.1l-7.67-7.67-.11.09ZM26.89,22c-.05.12-.11.25-.16.37l9.27,5.38c.51-.99.93-2.03,1.26-3.09l-10.32-2.79-.05.13ZM22.63,26.3c-.12.05-.25.09-.37.14l2.89,10.67c1.07-.37,2.11-.83,3.1-1.37l-5.49-9.49-.13.05ZM25.87,23.79c-.08.11-.17.22-.26.33l7.63,7.63c.74-.83,1.42-1.73,2-2.68l-9.3-5.4-.08.11ZM25.71,14.09c.08.1.17.22.25.33l9.15-5.3.14-.08c-.59-.94-1.26-1.84-2.01-2.68l-7.62,7.62.09.11ZM26.79,15.87c.05.12.11.25.16.38l10.31-2.79c-.33-1.06-.75-2.1-1.26-3.09l-9.27,5.37.06.13ZM4.93,19.06s4.11-3.22,8.05-5.4l-7.59-7.61-.14-.16c-6.97,7.01-7.05,19.35.03,26.3l7.73-7.75c-2.04-1.14-4.47-2.65-8.08-5.38M24.22,12.67c.1.07.22.17.32.25l7.65-7.65c-.81-.77-1.69-1.48-2.63-2.1l-5.46,9.42.12.08ZM27.37,17.85c.02.14.04.3.06.44h10.65c-.05-1.14-.19-2.27-.43-3.37l-10.3,2.79.02.14ZM14.9,12.68L9.15,2.75c-.97.6-1.94,1.28-2.8,2.1l8.06,8.05.49-.24ZM16.3,12.06l.44-.17L13.73.74c-1.12.33-2.21.76-3.24,1.27l5.82,10.05ZM22.27,11.67c.16.06.34.12.5.18l5.49-9.47c-.99-.55-2.04-1.01-3.1-1.37l-2.89,10.66ZM20.65,11.3c-.13-.01-.28-.03-.41-.04V.05c1.18.04,2.35.22,3.45.53l-2.91,10.74h-.13Z"></path></g></svg>