<svg xmlns="http://www.w3.org/2000/svg" id="Camada_2" viewBox="0 0 913.27 914.06"><defs><style>      .cls-1 {        fill: #0b4357;      }    </style></defs><g id="Camada_1-2" data-name="Camada_1"><path class="cls-1" d="M364.66,8.94l72,265.92,12.1-2.85V0c-27.32,0-54.78,3.39-84.1,8.94M495.1,642.97c-3.13.38-6.62.64-9.77.88v269.06c28.37-.94,56.22-5.39,82.75-12.72l-69.76-257.6-3.22.38ZM391.27,624.33l-139.79,241.4c24.74,12.37,50.9,22.68,77.87,30.51l72.33-267.81-10.4-4.1ZM440.26,639.92l-3.56-.88-72.03,266.06c25.48,5.26,58.44,8.85,84.09,8.96v-272.15c-2.9-.63-5.35-1.2-8.49-1.99M345.99,603.93c-3.28,3.75-190.94,190.05-193.63,194.12,21.17,18.93,43.74,35.71,67.09,50l138.11-238.5-11.56-5.62ZM657.5,478.61c-.42,3.44-1.08,7.14-1.63,10.58l243.18,65.83,3.83,1.04c5.8-26.39,9.29-53.52,10.4-80.73h-255.35l-.42,3.28ZM585.4,605.97c-2.38,1.89-5.17,3.92-7.65,5.74l131.08,226.34c22.45-14.92,43.64-31.86,63.09-50.3l-183.88-183.86-2.64,2.08ZM644.88,527.54c-1.17,2.89-2.59,6.04-3.85,8.9l222.4,129.03c12.13-23.71,22.28-48.58,30.14-74.01l-247.45-67-1.24,3.09ZM542.81,630.72c-2.82,1.11-6.07,2.25-8.92,3.28l69.3,255.92c25.72-8.77,50.72-19.85,74.37-32.88l-131.74-227.48-3.01,1.17ZM620.4,570.58c-1.93,2.59-4.08,5.32-6.12,7.82l183.08,183.09c17.82-19.95,33.97-41.57,48.08-64.19l-223.04-129.4-2,2.68ZM616.68,337.99c2.01,2.49,4.08,5.31,6.03,7.87l219.36-127.14,3.37-1.97c-14.06-22.57-30.22-44.17-48.1-64.19l-182.8,182.81,2.12,2.62ZM642.57,380.48c1.28,2.9,2.57,6.11,3.74,9.05l247.25-66.93c-7.87-25.49-18.02-50.4-30.14-74l-222.21,128.81,1.35,3.07ZM118.24,457.03c-.35-.26,98.57-77.3,193.13-129.42l-182.04-182.42-3.37-3.87c-167.03,168.19-169.07,463.97.63,630.75l185.47-185.96c-48.81-27.32-107.17-63.56-193.82-129.07M580.72,303.96c2.49,1.78,5.2,3.98,7.65,5.88l183.54-183.56c-19.46-18.47-40.64-35.4-63.06-50.28l-130.88,225.97,2.76,1.99ZM656.46,428.19c.59,3.41,1.07,7.1,1.48,10.55h255.33c-1.11-27.24-4.6-54.4-10.4-80.75l-246.95,66.85.55,3.35ZM357.28,304.03L219.44,66.04c-23.22,14.46-46.56,30.75-67.1,50.47l193.2,193.16,11.74-5.64ZM391,289.28l10.59-3.97L329.18,17.87c-26.93,7.85-53.07,18.11-77.73,30.47l139.55,240.94ZM533.96,279.81c3.86,1.37,8.23,2.94,12,4.42l131.59-227.22c-23.81-13.15-48.83-24.17-74.36-32.89l-69.23,255.69ZM495.15,271.03c-3.15-.35-6.66-.6-9.82-.86V1.13c28.34.98,56.26,5.33,82.75,12.79l-69.73,257.46-3.2-.35Z"></path></g></svg>